<svg width="24" height="24" viewBox="0 0 24 24" fill="none" xmlns="http://www.w3.org/2000/svg">
<path d="M3 17.9254V6.44915C3 4.54424 4.54424 3 6.44915 3C8.35407 3 9.8983 4.54424 9.8983 6.44915V14.3777C9.8983 14.5014 9.99858 14.6017 10.1223 14.6017H17.4237C19.3286 14.6017 20.8729 16.1459 20.8729 18.0508C20.8729 19.9558 19.3286 21.5 17.4237 21.5H6.57458C4.60039 21.5 3 19.8996 3 17.9254Z" stroke="black" stroke-width="2" stroke-linecap="round" stroke-linejoin="round"/>
<path d="M14 6.75C14 4.67893 15.6789 3 17.75 3V3C19.8211 3 21.5 4.67893 21.5 6.75V6.75C21.5 8.82107 19.8211 10.5 17.75 10.5H14.5C14.2239 10.5 14 10.2761 14 10V6.75Z" stroke="black" stroke-width="2"/>
</svg>
