<svg width="22" height="22" viewBox="0 0 22 22" fill="none" xmlns="http://www.w3.org/2000/svg">
<path d="M17.0347 10.7627C17.0068 7.0422 19.3182 6.94592 19.4221 6.88632C18.122 5.16703 16.0995 4.89653 15.3797 4.87132C13.6588 4.71314 12.0215 5.76993 11.1471 5.76993C10.2753 5.76993 8.92692 4.86902 7.50001 4.89195C5.62451 4.91716 3.89347 5.87538 2.9253 7.39523C0.976299 10.4556 2.42601 14.9876 4.32686 17.468C5.25448 18.6829 6.36204 20.0469 7.81682 19.9988C9.21585 19.9483 9.74555 19.1781 11.4386 19.1781C13.1316 19.1781 13.6055 19.9988 15.0882 19.9713C16.5937 19.946 17.5492 18.7334 18.4692 17.5138C19.5362 16.104 19.9747 14.8088 20 14.74C19.9671 14.7263 17.0626 13.2431 17.0321 10.7627H17.0347ZM11.0001 4.99969C11.0001 2.23966 13.4738 0 16.5278 0C16.5278 2.76232 14.0516 4.99969 11.0001 4.99969Z" fill="black"/>
</svg>
