<svg width="21" height="20" viewBox="0 0 21 20" fill="none" xmlns="http://www.w3.org/2000/svg">
<path d="M13.7116 11.248C13.3224 11.248 13.0068 11.5558 13.0068 11.9355V12.6061C13.0068 12.9857 13.3224 13.2935 13.7116 13.2935C14.1007 13.2935 14.4163 12.9857 14.4163 12.6061V11.9355C14.4163 11.5558 14.1007 11.248 13.7116 11.248Z" fill="white" fill-opacity="0.5"/>
<path d="M19.2127 13.2935C19.6018 13.2935 19.9174 12.9857 19.9174 12.6061V11.9355C19.9174 11.5558 19.6018 11.248 19.2127 11.248C18.8235 11.248 18.5079 11.5558 18.5079 11.9355V12.6061C18.5079 12.9857 18.8235 13.2935 19.2127 13.2935Z" fill="white" fill-opacity="0.5"/>
<path d="M17.2326 14.5628C17.2299 14.5671 16.9308 14.9908 16.4662 14.9908C16.0151 14.9908 15.7345 14.5923 15.7155 14.5644C15.5086 14.2471 15.0774 14.1507 14.7491 14.3496C14.4185 14.55 14.3169 14.9738 14.5224 15.2963C14.7753 15.6935 15.4695 16.3657 16.4662 16.3657C17.458 16.3657 18.1607 15.6985 18.4196 15.3043C18.6295 14.9846 18.5339 14.5594 18.2062 14.3546C17.878 14.15 17.4424 14.2432 17.2326 14.5628Z" fill="white" fill-opacity="0.5"/>
<path d="M19.6486 18.1016H9.20704C8.81785 18.1016 8.50232 18.4093 8.50232 18.789C8.50232 19.1686 8.81785 19.4764 9.20704 19.4764H19.6486C20.0378 19.4764 20.3534 19.1686 20.3534 18.789C20.3534 18.4093 20.0378 18.1016 19.6486 18.1016Z" fill="white" fill-opacity="0.5"/>
<path d="M18.0185 2.98705C17.9476 2.12351 17.5446 1.33876 16.8836 0.777328C16.8758 0.770841 16.868 0.764467 16.8599 0.758206C16.1977 0.20572 15.3597 -0.0602425 14.4966 0.01149C13.6241 0.0832 12.8331 0.489452 12.2697 1.15529L2.23713 13.0053C2.13058 13.1309 2.05476 13.2753 2.01255 13.4325L0.684523 18.3006C0.573604 18.7128 0.713315 19.1583 1.03885 19.4342C1.24415 19.6096 1.51097 19.7062 1.78279 19.7062C1.81375 19.7062 1.84474 19.705 1.8757 19.7024C2.00738 19.6917 2.13573 19.6584 2.26179 19.6014L6.83688 17.4957C6.98462 17.4276 7.11411 17.3303 7.22789 17.1993L17.2608 5.34839C17.8202 4.68748 18.0894 3.84879 18.0185 2.98705ZM6.18044 16.2776L2.19447 18.1121L3.36052 13.8375L11.2717 4.49305L14.2163 6.78556L6.18044 16.2776ZM16.174 4.47309L15.1139 5.7253L12.1693 3.43278L13.3565 2.03052C13.6766 1.65235 14.1235 1.42175 14.6149 1.38137C15.1051 1.34186 15.5818 1.49504 15.9578 1.8148C15.9637 1.81985 15.9697 1.82476 15.9758 1.82958C16.3467 2.15259 16.5729 2.60159 16.6136 3.09678C16.6549 3.60039 16.4988 4.08923 16.174 4.47309Z" fill="white" fill-opacity="0.5"/>
</svg>
