<svg width="24" height="24" viewBox="0 0 24 24" fill="none" xmlns="http://www.w3.org/2000/svg">
<path d="M4.38157 13.0927V4.36541C4.38157 3.16043 5.3584 2.18359 6.56338 2.18359H17.6728C18.8778 2.18359 19.8546 3.16043 19.8546 4.36541V13.0927M4.3637 21.82H19.6364C20.8414 21.82 21.8182 20.8431 21.8182 19.6381V15.2745C21.8182 14.0695 20.8414 13.0927 19.6364 13.0927H17.3037C16.4628 13.0927 15.6967 13.5759 15.3346 14.3349L14.9584 15.1232C14.5962 15.8822 13.8302 16.3654 12.9893 16.3654H11.7597C10.9475 16.3654 10.2025 15.9142 9.82617 15.1945L9.33953 14.2636C8.96322 13.5439 8.21856 13.0927 7.40635 13.0927C6.43557 13.0927 5.3188 13.0927 4.36304 13.0927C3.15805 13.0927 2.18188 14.0695 2.18188 15.2745V19.6381C2.18188 20.8431 3.15872 21.82 4.3637 21.82Z" stroke="#2B2B2B" stroke-width="2" stroke-linecap="round" stroke-linejoin="round"/>
<path d="M12.5455 6.54688H16.3637M10.9092 10.3651H16.3637" stroke="#2B2B2B" stroke-width="2" stroke-linecap="round" stroke-linejoin="round"/>
</svg>
