<svg width="19" height="22" viewBox="0 0 19 22" fill="none" xmlns="http://www.w3.org/2000/svg">
<g id="Group 1715">
<g id="Group 246">
<path id="Vector" d="M10.2929 9.29289C9.90237 9.68342 9.90237 10.3166 10.2929 10.7071C10.6834 11.0976 11.3166 11.0976 11.7071 10.7071L10.2929 9.29289ZM18 3H19C19 2.44772 18.5523 2 18 2L18 3ZM14.2118 2C13.6595 2 13.2118 2.44772 13.2118 3C13.2118 3.55228 13.6595 4 14.2118 4L14.2118 2ZM17 6.76923C17 7.32152 17.4477 7.76923 18 7.76923C18.5523 7.76923 19 7.32152 19 6.76923H17ZM11.7071 10.7071L18.7071 3.70711L17.2929 2.29289L10.2929 9.29289L11.7071 10.7071ZM14.2118 4L18 4L18 2L14.2118 2L14.2118 4ZM17 3V6.76923H19V3H17Z" fill="white"/>
<path id="Rectangle 116" d="M8.5 4C8.5 4 8.35499 4 6.5 4H3C1.89543 4 1 4.89543 1 6V17C1 18.1046 1.89543 19 3 19H14C15.1046 19 16 18.1046 16 17V14V11.5" stroke="white" stroke-width="2" stroke-linecap="round"/>
</g>
</g>
</svg>
