<svg width="22" height="22" viewBox="0 0 22 22" fill="none" xmlns="http://www.w3.org/2000/svg">
<g clip-path="url(#clip0_3777_26539)">
<path d="M5.76353 11.0001C5.76353 10.4286 5.86103 9.88031 6.03353 9.36656L3.00503 7.10156C2.39655 8.31092 2.08057 9.64626 2.08253 11.0001C2.08253 12.4011 2.41403 13.7226 3.00353 14.8956L6.03053 12.6268C5.85403 12.1026 5.76385 11.5532 5.76353 11.0001Z" fill="#FBBC05"/>
<path d="M11.0824 5.8002C12.3499 5.8002 13.4951 6.2397 14.3951 6.9597L17.0134 4.39995C15.4181 3.0402 13.3729 2.2002 11.0824 2.2002C7.52588 2.2002 4.46888 4.19145 3.00488 7.10145L6.03488 9.36645C6.73238 7.29194 8.72138 5.8002 11.0824 5.8002Z" fill="#EA4335"/>
<path d="M11.0824 16.1998C8.72063 16.1998 6.73163 14.708 6.03338 12.6335L3.00488 14.8985C4.46813 17.8085 7.52513 19.7998 11.0824 19.7998C13.2769 19.7998 15.3724 19.037 16.9459 17.6068L14.0704 15.4303C13.2596 15.9305 12.2381 16.1998 11.0816 16.1998" fill="#34A853"/>
<path d="M19.6728 10.9999C19.6728 10.4801 19.5903 9.9199 19.468 9.40015H11.0815V12.7999H15.9085C15.6678 13.9594 15.0108 14.8504 14.071 15.4301L16.9458 17.6066C18.598 16.1051 19.6728 13.8686 19.6728 10.9999Z" fill="#4285F4"/>
</g>
<defs>
<clipPath id="clip0_3777_26539">
<rect width="18" height="18" fill="white" transform="translate(2 2)"/>
</clipPath>
</defs>
</svg>
