<svg width="18" height="19" viewBox="0 0 18 19" fill="none" xmlns="http://www.w3.org/2000/svg">
<path d="M5.57143 10.3793L5.99762 3.82107C6.08339 2.50131 7.04117 1.4019 8.33673 1.13608L8.41267 1.1205C8.79915 1.04121 9.19861 1.05094 9.58077 1.14895V1.14895C10.6105 1.41303 11.3756 2.2775 11.5126 3.33165L12.4286 10.3793M2.15685 18H15.8431C16.453 18 16.9209 17.4588 16.8326 16.8553L15.4108 7.13118C15.339 6.64 14.9177 6.27586 14.4213 6.27586H3.5787C3.0823 6.27586 2.66104 6.64 2.58922 7.13118L1.16737 16.8553C1.07914 17.4588 1.54698 18 2.15685 18Z" stroke="#E1E1E1" stroke-width="2" stroke-linecap="round"/>
</svg>
