<svg width="15" height="15" viewBox="0 0 15 15" fill="none" xmlns="http://www.w3.org/2000/svg">
<rect width="15" height="15" fill="white"/>
<path d="M7.35412 12.9642C6.87864 12.8343 5.28695 12.2982 3.26089 10.5349C2.04193 9.47412 1.04332 8.11385 1.0034 6.49843C1.00117 6.40806 1 6.31442 1 6.21739C1 4.96694 1.84144 3.89436 2.04118 3.65737C2.06912 3.62422 2.09719 3.59201 2.12489 3.55866C3.24313 2.21228 5.29761 2.17725 6.46111 3.48472L7.5 4.65217L8.49267 3.53667C9.64236 2.2447 11.6711 2.40892 12.9167 3.6087C13.6794 4.34333 14 5.17391 14 6.21739C14 7.98377 12.9105 9.57187 11.5347 10.6797C9.76015 12.1086 8.12544 12.7724 7.64317 12.9497C7.54959 12.9841 7.4503 12.9905 7.35412 12.9642Z" stroke="#D9D9D9" stroke-width="1.5" stroke-linecap="round"/>
</svg>
