<svg width="13" height="12" viewBox="0 0 13 12" fill="none" xmlns="http://www.w3.org/2000/svg">
<path d="M5.44152 10.3094C4.73894 9.64614 3.80328 8.7291 2.75995 7.61806C2.2066 7.02879 1.66295 6.39031 1.5562 5.58903C1.52203 5.33253 1.5 5.02271 1.5 4.6502C1.5 3.65678 2.17791 2.80449 2.34033 2.61454C2.36327 2.58771 2.38638 2.5616 2.40914 2.53462C3.3168 1.45834 4.96547 1.43017 5.90938 2.4748L6.75 3.40514L7.5527 2.51678C8.48617 1.48368 10.1148 1.61685 11.125 2.5751C11.741 3.15947 12 3.82016 12 4.6502C12 6.05612 11.095 7.27764 10.1165 8.2872C9.36655 9.06101 8.64171 9.7611 8.05795 10.3088C7.31607 11.0048 6.18121 11.0077 5.44152 10.3094Z" fill="#FF0000" stroke="#FF0000" stroke-linecap="round"/>
</svg>
