<svg width="23" height="21" viewBox="0 0 23 21" fill="none" xmlns="http://www.w3.org/2000/svg">
<path d="M2.64121 6.26734C2.85173 6.14444 3.0101 5.94888 3.08657 5.71742C3.68598 3.90294 4.50589 3.3028 5.10356 3.09845C5.75671 2.87514 6.42985 3.02512 6.85134 3.20334C7.29712 3.39183 7.81392 3.23401 8.07835 2.82863C9.67326 0.383589 13.1458 0.420889 14.4211 2.76088C14.6477 3.17656 15.1347 3.37642 15.5879 3.23973C16.4264 2.98686 17.0094 2.83126 17.5365 3.01179C17.979 3.16339 18.6921 3.68809 19.3215 5.70201C19.4117 5.99067 19.6277 6.223 19.909 6.33398C21.4068 6.92481 21.8774 7.70527 21.9774 8.42214C22.0917 9.24179 21.768 10.2851 21.0614 11.4066C20.3695 12.5046 19.3941 13.5421 18.4489 14.2996C17.9776 14.6773 17.5329 14.9699 17.1556 15.1632C16.7531 15.3693 16.5213 15.4135 16.4477 15.4135C16.0976 15.4135 15.773 15.5966 15.5919 15.8961C15.4108 16.1957 15.3995 16.5682 15.5621 16.8781C16.0121 17.7358 15.872 18.4384 15.4643 18.9543C15.0222 19.5137 14.1731 19.9566 13.0661 19.9753L11.6067 19.9999L10.0585 19.9737C9.00648 19.9559 8.20325 19.5388 7.74787 18.9748C7.30774 18.4297 7.12113 17.6641 7.43961 16.7391C7.60096 16.2705 7.39473 15.7544 6.95486 15.526C5.58316 14.8139 3.22118 12.9919 1.90894 11.014C1.25281 10.0251 0.945493 9.12662 1.00799 8.38375C1.06433 7.71405 1.43942 6.96896 2.64121 6.26734Z" stroke="black" stroke-width="2" stroke-linecap="round" stroke-linejoin="round"/>
<path d="M6 8.64526L7.84143 11M11.5894 7V10.6062M17 8.63734C16.1674 9.81867 16.1674 9.9052 15.3348 11" stroke="black" stroke-width="2" stroke-linecap="round" stroke-linejoin="round"/>
</svg>
