<svg width="44" height="44" viewBox="0 0 44 44" fill="none" xmlns="http://www.w3.org/2000/svg">
<path d="M20.3074 41.8266V38.4232C17.5619 38.1693 14.9205 37.1741 12.6281 35.5298C10.3356 33.8856 8.46639 31.6456 7.19362 29.0174C7.09565 28.8335 7.03323 28.6302 7.01011 28.4197C6.98698 28.2092 7.00363 27.9958 7.05905 27.7924C7.11446 27.589 7.20751 27.3997 7.33261 27.2359C7.45771 27.0721 7.61228 26.9372 7.78706 26.8392C7.96183 26.7412 8.15322 26.6821 8.34973 26.6656C8.54624 26.6491 8.74383 26.6754 8.93066 26.743C9.11748 26.8105 9.28969 26.918 9.43696 27.0589C9.58422 27.1998 9.70351 27.3712 9.78768 27.5628C10.9294 29.9201 12.6505 31.8954 14.7637 33.2739C16.8769 34.6524 19.3011 35.3814 21.7727 35.3814C24.2443 35.3814 26.6686 34.6524 28.7818 33.2739C30.8949 31.8954 32.616 29.9201 33.7578 27.5628C33.8436 27.374 33.9637 27.2056 34.111 27.0674C34.2583 26.9293 34.4298 26.8243 34.6155 26.7586C34.8011 26.6929 34.9971 26.6678 35.1919 26.6849C35.3867 26.7019 35.5764 26.7608 35.7497 26.8579C35.923 26.955 36.0765 27.0885 36.2011 27.2504C36.3256 27.4124 36.4188 27.5995 36.4751 27.8007C36.5313 28.002 36.5495 28.2134 36.5286 28.4223C36.5077 28.6313 36.4481 28.8336 36.3533 29.0174C35.0796 31.645 33.2099 33.8846 30.9173 35.5287C28.6248 37.1729 25.9835 38.1684 23.2381 38.4232V41.8266C23.2381 42.2441 23.0838 42.6444 22.8093 42.9396C22.5347 43.2347 22.1624 43.4005 21.7742 43.4005C21.386 43.4005 21.0137 43.2347 20.7391 42.9396C20.4646 42.6444 20.3104 42.2441 20.3103 41.8266H20.3074ZM11.0847 19.9689V14.3617C11.1176 11.3362 12.2584 8.4466 14.2596 6.31965C16.2609 4.1927 18.9612 2.99988 21.7749 2.99988C24.5887 2.99988 27.289 4.1927 29.2902 6.31965C31.2915 8.4466 32.4322 11.3362 32.4652 14.3617V19.9705C32.4322 22.996 31.2915 25.8856 29.2902 28.0125C27.289 30.1395 24.5887 31.3323 21.7749 31.3323C18.9612 31.3323 16.2609 30.1395 14.2596 28.0125C12.2584 25.8856 11.1176 22.996 11.0847 19.9705V19.9689ZM14.0125 14.3617V19.9705C14.0125 21.0662 14.2132 22.1511 14.6031 23.1633C14.993 24.1756 15.5645 25.0953 16.285 25.8701C17.0055 26.6448 17.8608 27.2594 18.8021 27.6786C19.7435 28.0979 20.7524 28.3137 21.7713 28.3137C22.7902 28.3137 23.7991 28.0979 24.7404 27.6786C25.6818 27.2594 26.5371 26.6448 27.2575 25.8701C27.978 25.0953 28.5495 24.1756 28.9394 23.1633C29.3293 22.1511 29.53 21.0662 29.53 19.9705V14.3632C29.53 12.1505 28.7126 10.0284 27.2575 8.4637C25.8025 6.89905 23.829 6.02003 21.7713 6.02003C19.7135 6.02003 17.7401 6.89905 16.285 8.4637C14.83 10.0284 14.0125 12.1505 14.0125 14.3632V14.3617Z" fill="white"/>
</svg>
