<svg width="24" height="24" viewBox="0 0 24 24" fill="none" xmlns="http://www.w3.org/2000/svg">
<path d="M9.88304 20.6188C8.47787 19.2923 6.60655 17.4582 4.5199 15.2361C3.41319 14.0576 2.32589 12.7806 2.1124 11.1781C2.04406 10.6651 2 10.0454 2 9.3004C2 7.31355 3.35582 5.60897 3.68067 5.22907C3.72655 5.17542 3.77276 5.1232 3.81828 5.06924C5.6336 2.91668 8.93094 2.86033 10.8188 4.94961L12.5 6.81028L14.1054 5.03356C15.9723 2.96737 19.2297 3.2337 21.25 5.1502C22.482 6.31894 23 7.64032 23 9.3004C23 12.1122 21.19 14.5553 19.2331 16.5744C17.7331 18.122 16.2834 19.5222 15.1159 20.6175C13.6321 22.0095 11.3624 22.0154 9.88304 20.6188Z" stroke="white" stroke-width="2" stroke-linecap="round"/>
</svg>
