<svg width="18" height="18" viewBox="0 0 18 18" fill="none" xmlns="http://www.w3.org/2000/svg">
<path d="M6.92432 15.864C6.00081 15.1451 4.73458 14.0793 3.29844 12.65C2.1525 11.5096 1.10535 10.1943 1.01705 8.57997C1.00608 8.37948 1 8.16283 1 7.92885C1 6.50968 1.96844 5.29212 2.20048 5.02077C2.23325 4.98244 2.26626 4.94515 2.29877 4.9066C3.59543 3.36906 5.95067 3.32881 7.29911 4.82115L8.5 6.1502L9.64671 4.88111C10.9802 3.40526 13.3069 3.5955 14.75 4.96443C15.63 5.79924 16 6.74308 16 7.92885C16 9.93732 14.7189 11.696 13.2649 13.0816C12.0735 14.2171 10.9294 15.1643 10.061 15.8429C9.13046 16.5701 7.85625 16.5894 6.92432 15.864Z" stroke="#999999" stroke-linecap="round"/>
</svg>
