<svg width="21" height="19" viewBox="0 0 21 19" fill="none" xmlns="http://www.w3.org/2000/svg">
<path d="M12.3476 6.56098H19.9943L19.9887 13H12.3617C10.7423 13 9.41511 11.7147 9.36324 10.0961L9.34917 9.65707C9.2949 7.96342 10.6531 6.56098 12.3476 6.56098ZM19.996 4.56098H12.3476C9.52345 4.56098 7.25974 6.89839 7.3502 9.72113L7.36427 10.1602C7.45072 12.8578 9.66263 15 12.3617 15H19.9903C19.9903 16.6563 18.6475 18 16.9903 18H4C2.34315 18 1 16.6569 1 15V4C1 2.34315 2.34315 1 4 1H16.9965C18.6544 1 19.998 2.34473 19.9965 4.00261L19.996 4.56098Z" stroke="black" stroke-width="2"/>
<circle cx="15.5" cy="9.5" r="1.5" fill="black"/>
</svg>
