<svg width="35" height="35" viewBox="0 0 35 35" fill="none" xmlns="http://www.w3.org/2000/svg">
<mask id="path-1-inside-1_4529_12688" fill="white">
<path d="M18.6782 29.4258C16.4158 29.9741 14.0422 29.8456 11.8522 29.0564C9.66216 28.2671 7.7523 26.8518 6.35981 24.9864C4.96732 23.1209 4.15358 20.8874 4.01967 18.5634C3.88576 16.2394 4.43758 13.9272 5.60659 11.9141C6.77559 9.90108 8.51026 8.27581 10.5951 7.24024C12.68 6.20468 15.0231 5.80444 17.3335 6.08925C19.6439 6.37407 21.8197 7.33138 23.5906 8.84228C25.3616 10.3532 26.6496 12.3511 27.2947 14.5878L24.9517 15.2635C24.439 13.486 23.4153 11.8982 22.0079 10.6974C20.6005 9.49664 18.8713 8.73583 17.0352 8.50948C15.199 8.28313 13.3368 8.60121 11.6799 9.42421C10.023 10.2472 8.64441 11.5389 7.71536 13.1387C6.78631 14.7386 6.34776 16.5761 6.45418 18.4231C6.56061 20.2701 7.20731 22.0451 8.31397 23.5277C9.42063 25.0102 10.9385 26.135 12.6789 26.7622C14.4194 27.3895 16.3058 27.4916 18.1038 27.0558L18.6782 29.4258Z"/>
</mask>
<path d="M18.6782 29.4258C16.4158 29.9741 14.0422 29.8456 11.8522 29.0564C9.66216 28.2671 7.7523 26.8518 6.35981 24.9864C4.96732 23.1209 4.15358 20.8874 4.01967 18.5634C3.88576 16.2394 4.43758 13.9272 5.60659 11.9141C6.77559 9.90108 8.51026 8.27581 10.5951 7.24024C12.68 6.20468 15.0231 5.80444 17.3335 6.08925C19.6439 6.37407 21.8197 7.33138 23.5906 8.84228C25.3616 10.3532 26.6496 12.3511 27.2947 14.5878L24.9517 15.2635C24.439 13.486 23.4153 11.8982 22.0079 10.6974C20.6005 9.49664 18.8713 8.73583 17.0352 8.50948C15.199 8.28313 13.3368 8.60121 11.6799 9.42421C10.023 10.2472 8.64441 11.5389 7.71536 13.1387C6.78631 14.7386 6.34776 16.5761 6.45418 18.4231C6.56061 20.2701 7.20731 22.0451 8.31397 23.5277C9.42063 25.0102 10.9385 26.135 12.6789 26.7622C14.4194 27.3895 16.3058 27.4916 18.1038 27.0558L18.6782 29.4258Z" stroke="black" stroke-width="3" stroke-linejoin="round" mask="url(#path-1-inside-1_4529_12688)"/>
<path d="M23.4395 23.28H30.9995M23.4395 27.6H30.9995M23.4395 18.96H30.9995" stroke="black" stroke-width="2" stroke-linecap="round"/>
<circle cx="19.6758" cy="15.5034" r="1.584" fill="black"/>
<circle cx="11.918" cy="15.5034" r="1.584" fill="black"/>
<path d="M10.7871 20.062C11.5145 24.1836 19.5153 24.6685 20.7275 20.062" stroke="black" stroke-width="2" stroke-linecap="round" stroke-linejoin="round"/>
</svg>
