<svg width="24" height="24" viewBox="0 0 24 24" fill="none" xmlns="http://www.w3.org/2000/svg">
<g id="Group 1597">
<g id="Group 1095">
<path id="Star 1" d="M12.8967 1.81699C12.5299 1.07374 11.4701 1.07374 11.1033 1.81699L8.70596 6.67446C8.5603 6.9696 8.27873 7.17417 7.95302 7.2215L2.59249 8.00043C1.77227 8.11961 1.44475 9.12759 2.03827 9.70612L5.91719 13.4871C6.15288 13.7169 6.26043 14.0479 6.20479 14.3723L5.2891 19.7111C5.14899 20.528 6.00642 21.151 6.74005 20.7653L11.5347 18.2446C11.826 18.0915 12.174 18.0915 12.4653 18.2446L17.2599 20.7653C17.9936 21.151 18.851 20.528 18.7109 19.7111L17.7952 14.3723C17.7396 14.0479 17.8471 13.7169 18.0828 13.4871L21.9617 9.70612C22.5552 9.12759 22.2277 8.11961 21.4075 8.00043L16.047 7.2215C15.7213 7.17417 15.4397 6.9696 15.294 6.67446L12.8967 1.81699Z" fill="#FFC700" stroke="#FFC700" stroke-width="1.5"/>
</g>
</g>
</svg>
