<svg width="12" height="15" viewBox="0 0 12 15" fill="none" xmlns="http://www.w3.org/2000/svg">
<path d="M3.2058 13.2169H5.8518C7.3446 13.2169 8.3976 13.0169 9.009 12.6156C9.621 12.2156 9.927 11.5512 9.927 10.6237C9.927 9.68812 9.6348 9.02188 9.051 8.62563C8.4666 8.22938 7.44 8.03125 5.9706 8.03125H3.2058V13.2169ZM3.2058 6.47563H5.6964C6.8244 6.47563 7.6608 6.28562 8.2044 5.90688C8.7492 5.52688 9.021 4.94125 9.021 4.14813C9.021 3.39812 8.775 2.8225 8.2824 2.42188C7.7898 2.02187 7.0824 1.82125 6.1614 1.82125H3.2058V6.47563ZM6.6258 15H0.834C0.5562 15 0.348 14.9244 0.2088 14.7725C0.0696 14.6206 0 14.3931 0 14.0894C0 13.7519 0.282 13.2169 0.942 13.2169H1.335V1.82125H0.942C0.33 1.82125 0.0719999 1.25625 0.0719999 0.910625C0.0719999 0.615625 0.1428 0.39 0.2862 0.23375C0.429 0.0775 0.6354 0 0.9054 0H5.8992C7.5834 0 8.8662 0.3475 9.7476 1.04375C10.6296 1.73875 11.0706 2.74875 11.0706 4.0725C11.0706 4.73875 10.9356 5.32062 10.6656 5.81812C10.3956 6.31563 9.9936 6.72438 9.462 7.045C10.32 7.37375 10.9572 7.8325 11.3742 8.42312C11.7912 9.01375 12 9.76375 12 10.6744C12 11.4419 11.8212 12.1419 11.4636 12.7744C11.106 13.4062 10.602 13.9244 9.9504 14.3294C9.54646 14.5714 9.1079 14.7444 8.6514 14.8419C8.175 14.9475 7.4994 15 6.6258 15Z" fill="black"/>
</svg>
