<svg width="95" height="16" viewBox="0 0 95 16" fill="none" xmlns="http://www.w3.org/2000/svg">
<g id="Group 1769">
<g id="Group 1712">
<rect id="Rectangle 497" x="56" y="5" width="2" height="6" rx="1" fill="white"/>
<rect id="Rectangle 495" x="44" y="5" width="2" height="6" rx="1" fill="white"/>
<rect id="Rectangle 504" x="38" y="6" width="2" height="4" rx="1" fill="white"/>
<rect id="Rectangle 505" x="32" y="1" width="2" height="13" rx="1" fill="white"/>
<rect id="Rectangle 496" x="50" y="2" width="2" height="12" rx="1" fill="white"/>
<rect id="Rectangle 498" x="62" y="3" width="2" height="10" rx="1" fill="white"/>
<rect id="Rectangle 499" x="68" width="2" height="16" rx="1" fill="white"/>
<rect id="Rectangle 500" x="74" y="3" width="2" height="10" rx="1" fill="white"/>
<rect id="Rectangle 501" x="80" y="4" width="2" height="8" rx="1" fill="white"/>
<rect id="Rectangle 502" x="86" y="5.59961" width="2" height="4.8" rx="1" fill="white"/>
<rect id="Rectangle 503" x="92" y="5" width="2" height="6" rx="1" fill="white"/>
<g id="Group 1712_2">
<rect id="Rectangle 499_2" x="2" y="6" width="2" height="4" rx="1" fill="white"/>
<rect id="Rectangle 500_2" x="8" y="5" width="2" height="6" rx="1" fill="white"/>
<rect id="Rectangle 501_2" x="14" y="2" width="2" height="11" rx="1" fill="white"/>
<rect id="Rectangle 502_2" x="20" y="5.59961" width="2" height="4.8" rx="1" fill="white"/>
<rect id="Rectangle 503_2" x="26" y="5" width="2" height="6" rx="1" fill="white"/>
</g>
</g>
</g>
</svg>
