<svg width="18" height="16" viewBox="0 0 18 16" fill="none" xmlns="http://www.w3.org/2000/svg">
<path d="M2.99951 3H3.64555C4.26745 3 4.81662 2.59439 4.99951 2C5.1824 1.40561 5.73158 1 6.35347 1H11.6456C12.2674 1 12.8166 1.40561 12.9995 2C13.1824 2.59439 13.7316 3 14.3535 3H14.9995C16.1041 3 16.9995 3.89543 16.9995 5V13C16.9995 14.1046 16.1041 15 14.9995 15H2.99951C1.89494 15 0.999512 14.1046 0.999512 13V5C0.999512 3.89543 1.89494 3 2.99951 3Z" stroke="white" stroke-width="2" stroke-linejoin="round"/>
<circle cx="8.99951" cy="9" r="3" stroke="white" stroke-width="2"/>
</svg>
