<svg width="26" height="27" viewBox="0 0 26 27" fill="none" xmlns="http://www.w3.org/2000/svg">
<path d="M4.42349 22.221L1.33549 8.59182C1.17675 7.89122 1.78651 7.25676 2.49286 7.38757L6.98409 8.21927C7.3608 8.28904 7.74425 8.13744 7.97142 7.82894L12.1948 2.09354C12.5944 1.5508 13.4056 1.5508 13.8052 2.09354L18.0286 7.82894C18.2558 8.13744 18.6392 8.28904 19.0159 8.21928L23.4477 7.39858C24.1691 7.26497 24.7841 7.92804 24.5965 8.63742L20.9968 22.2556C20.8808 22.6943 20.4839 23 20.03 23H5.39877C4.93163 23 4.52672 22.6766 4.42349 22.221Z" stroke="#999999" stroke-width="1.5" stroke-linecap="round" stroke-linejoin="round"/>
<path d="M10 17C11 17.7546 13.6 18.8111 16 17" stroke="#999999" stroke-width="1.5" stroke-linecap="round" stroke-linejoin="round"/>
</svg>
