<svg width="26" height="26" viewBox="0 0 26 26" fill="none" xmlns="http://www.w3.org/2000/svg">
<path d="M4.42349 21.221L1.33549 7.59182C1.17675 6.89122 1.78651 6.25676 2.49286 6.38757L6.98409 7.21927C7.3608 7.28904 7.74425 7.13744 7.97142 6.82894L12.1948 1.09354C12.5944 0.550801 13.4056 0.550801 13.8052 1.09354L18.0286 6.82894C18.2558 7.13744 18.6392 7.28904 19.0159 7.21928L23.4477 6.39858C24.1691 6.26497 24.7841 6.92804 24.5965 7.63742L20.9968 21.2556C20.8808 21.6943 20.4839 22 20.03 22H5.39877C4.93163 22 4.52672 21.6766 4.42349 21.221Z" fill="url(#paint0_linear_1304_13915)"/>
<path d="M10 16C11 16.7546 13.6 17.8111 16 16" stroke="#44CF05" stroke-width="1.5" stroke-linecap="round" stroke-linejoin="round"/>
<defs>
<linearGradient id="paint0_linear_1304_13915" x1="13" y1="1.1989e-07" x2="13" y2="22" gradientUnits="userSpaceOnUse">
<stop stop-color="#424242"/>
<stop offset="1"/>
</linearGradient>
</defs>
</svg>
